<svg xmlns="http://www.w3.org/2000/svg" version="1.1" xmlns:xlink="http://www.w3.org/1999/xlink" width="512" height="512" x="0" y="0" viewBox="0 0 24 24" style="enable-background:new 0 0 512 512" xml:space="preserve" class=""><g><path d="M12 7C8.215 7 5.704 3.853 5.704 1.771c0-.511.156-.946.451-1.258C6.376.279 6.79 0 7.5 0c1.478 0 2.222 1.537 3.009 3.164.525 1.084 1.068 2.206 1.844 2.982A.499.499 0 0 1 12 7zM7.5 1c-.285 0-.493.067-.619.201-.146.155-.177.396-.177.57 0 1.272 1.583 3.561 4.151 4.108-.493-.723-.885-1.535-1.246-2.279C8.934 2.205 8.351 1 7.5 1z" fill="#ffffff" opacity="1" data-original="#000000" class=""></path><path d="M12 7a.5.5 0 0 1-.354-.854c.776-.776 1.319-1.898 1.844-2.982C14.278 1.537 15.022 0 16.5 0c.71 0 1.124.279 1.345.514.295.312.451.747.451 1.258C18.296 3.853 15.785 7 12 7zm4.5-6c-.851 0-1.434 1.205-2.109 2.6-.361.745-.753 1.556-1.246 2.28 2.567-.547 4.151-2.836 4.151-4.108 0-.175-.031-.416-.178-.571C16.993 1.067 16.785 1 16.5 1zM4.5 18h-4a.502.502 0 0 1-.499-.538L.61 9.545A7.256 7.256 0 0 1 6.402 3.01a.5.5 0 1 1 .196.98 6.255 6.255 0 0 0-4.991 5.633L1.04 17H4.5a.5.5 0 0 1 0 1z" fill="#ffffff" opacity="1" data-original="#000000" class=""></path><path d="M19.5 21h-15a.5.5 0 0 1-.5-.5v-10a.5.5 0 0 1 1 0V20h14v-9.5a.5.5 0 0 1 1 0v10a.5.5 0 0 1-.5.5z" fill="#ffffff" opacity="1" data-original="#000000" class=""></path><path d="M17.5 24h-11A2.503 2.503 0 0 1 4 21.5v-1a.5.5 0 0 1 .5-.5h15a.5.5 0 0 1 .5.5v1c0 1.378-1.122 2.5-2.5 2.5zM5 21v.5c0 .827.673 1.5 1.5 1.5h11c.827 0 1.5-.673 1.5-1.5V21zM4.5 20h-2c-.827 0-1.5-.673-1.5-1.5v-1a.5.5 0 0 1 .5-.5h3a.5.5 0 0 1 .5.5v2a.5.5 0 0 1-.5.5zM2 18v.5a.5.5 0 0 0 .5.5H4v-1zM23.5 18h-4a.5.5 0 0 1 0-1h3.46l-.567-7.377a6.253 6.253 0 0 0-4.991-5.632c-.271-.054-.446-.317-.392-.588s.313-.45.588-.392a7.257 7.257 0 0 1 5.792 6.536l.609 7.916A.497.497 0 0 1 23.5 18z" fill="#ffffff" opacity="1" data-original="#000000" class=""></path><path d="M21.5 20h-2a.5.5 0 0 1-.5-.5v-2a.5.5 0 0 1 .5-.5h3a.5.5 0 0 1 .5.5v1c0 .827-.673 1.5-1.5 1.5zM20 19h1.5a.5.5 0 0 0 .5-.5V18h-2zM10.5 10a.5.5 0 0 1-.5-.5v-3a.5.5 0 0 1 1 0v3a.5.5 0 0 1-.5.5zM13.5 14a.5.5 0 0 1-.5-.5v-7a.5.5 0 0 1 1 0v7a.5.5 0 0 1-.5.5zM16.5 1h-9a.5.5 0 0 1 0-1h9a.5.5 0 0 1 0 1z" fill="#ffffff" opacity="1" data-original="#000000" class=""></path></g></svg>