<svg width="260" height="90" viewBox="0 0 260 90" fill="none" xmlns="http://www.w3.org/2000/svg">
<path d="M134.638 60H122.97L115.69 30.0675H117.445L110.165 60H98.4325L88.65 17.1H99.7975L104.965 47.195H104.835L112.895 17.1H120.208L128.3 47.195H128.17L133.338 17.1H144.485L134.638 60ZM158.448 60.78C155.523 60.78 152.923 60.1842 150.648 58.9925C148.394 57.7792 146.618 56.1217 145.318 54.02C144.039 51.8967 143.4 49.47 143.4 46.74C143.4 44.01 144.039 41.5833 145.318 39.46C146.618 37.315 148.394 35.625 150.648 34.39C152.923 33.155 155.523 32.5375 158.448 32.5375C161.373 32.5375 163.951 33.155 166.183 34.39C168.414 35.625 170.159 37.315 171.415 39.46C172.672 41.5833 173.3 44.01 173.3 46.74C173.3 49.47 172.672 51.8967 171.415 54.02C170.159 56.1217 168.414 57.7792 166.183 58.9925C163.951 60.1842 161.373 60.78 158.448 60.78ZM158.448 52.655C159.574 52.655 160.549 52.4058 161.373 51.9075C162.196 51.4092 162.835 50.705 163.29 49.795C163.745 48.885 163.973 47.8558 163.973 46.7075C163.973 45.5375 163.745 44.4975 163.29 43.5875C162.835 42.6775 162.196 41.9625 161.373 41.4425C160.549 40.9225 159.574 40.6625 158.448 40.6625C157.321 40.6625 156.335 40.9225 155.49 41.4425C154.667 41.9625 154.017 42.6775 153.54 43.5875C153.085 44.4975 152.858 45.5375 152.858 46.7075C152.858 47.8558 153.085 48.885 153.54 49.795C154.017 50.705 154.667 51.4092 155.49 51.9075C156.335 52.4058 157.321 52.655 158.448 52.655ZM185.072 60H175.159V15.28H185.072V60ZM186.144 33.3175H190.564V26.265C190.564 23.665 191.117 21.4983 192.222 19.765C193.327 18.0317 194.757 16.7208 196.512 15.8325C198.267 14.9442 200.087 14.5 201.972 14.5C204.312 14.5 206.089 14.8142 207.302 15.4425C208.537 16.0708 209.317 16.5367 209.642 16.84L205.872 24.0875C205.764 23.9142 205.493 23.665 205.059 23.34C204.626 23.015 204.052 22.8525 203.337 22.8525C202.882 22.8525 202.427 22.9717 201.972 23.21C201.517 23.4483 201.138 23.8708 200.834 24.4775C200.553 25.0842 200.412 25.9725 200.412 27.1425V33.3175H207.009V41.4425H200.412V60H190.564V41.4425H186.144V33.3175ZM221.312 51.4525L228.527 33.3175H238.212L219.882 73.52H210.002L216.177 60L205.029 33.3175H214.877L221.312 51.4525ZM244.689 60.78C243.086 60.78 241.699 60.2058 240.529 59.0575C239.381 57.8875 238.807 56.5008 238.807 54.8975C238.807 53.2508 239.381 51.8533 240.529 50.705C241.699 49.535 243.086 48.95 244.689 48.95C246.336 48.95 247.733 49.535 248.882 50.705C250.03 51.8533 250.604 53.2508 250.604 54.8975C250.604 56.5008 250.03 57.8875 248.882 59.0575C247.733 60.2058 246.336 60.78 244.689 60.78Z" fill="black"/>
<path d="M125.83 75V68H129.01C129.77 68 130.44 68.1467 131.02 68.44C131.6 68.7267 132.053 69.13 132.38 69.65C132.707 70.17 132.87 70.7867 132.87 71.5C132.87 72.2067 132.707 72.8233 132.38 73.35C132.053 73.87 131.6 74.2767 131.02 74.57C130.44 74.8567 129.77 75 129.01 75H125.83ZM127.45 73.67H128.93C129.397 73.67 129.8 73.5833 130.14 73.41C130.487 73.23 130.753 72.9767 130.94 72.65C131.133 72.3233 131.23 71.94 131.23 71.5C131.23 71.0533 131.133 70.67 130.94 70.35C130.753 70.0233 130.487 69.7733 130.14 69.6C129.8 69.42 129.397 69.33 128.93 69.33H127.45V73.67ZM137.092 75V68H140.122C140.748 68 141.288 68.1033 141.742 68.31C142.195 68.51 142.545 68.8 142.792 69.18C143.038 69.56 143.162 70.0133 143.162 70.54C143.162 71.06 143.038 71.51 142.792 71.89C142.545 72.2633 142.195 72.55 141.742 72.75C141.288 72.95 140.748 73.05 140.122 73.05H137.992L138.712 72.34V75H137.092ZM141.542 75L139.792 72.46H141.522L143.292 75H141.542ZM138.712 72.52L137.992 71.76H140.032C140.532 71.76 140.905 71.6533 141.152 71.44C141.398 71.22 141.522 70.92 141.522 70.54C141.522 70.1533 141.398 69.8533 141.152 69.64C140.905 69.4267 140.532 69.32 140.032 69.32H137.992L138.712 68.55V72.52ZM148.935 70.82H152.305V72.08H148.935V70.82ZM149.055 73.7H152.865V75H147.445V68H152.735V69.3H149.055V73.7ZM159.454 75.12C158.894 75.12 158.358 75.0467 157.844 74.9C157.331 74.7467 156.918 74.55 156.604 74.31L157.154 73.09C157.454 73.3033 157.808 73.48 158.214 73.62C158.628 73.7533 159.044 73.82 159.464 73.82C159.784 73.82 160.041 73.79 160.234 73.73C160.434 73.6633 160.581 73.5733 160.674 73.46C160.768 73.3467 160.814 73.2167 160.814 73.07C160.814 72.8833 160.741 72.7367 160.594 72.63C160.448 72.5167 160.254 72.4267 160.014 72.36C159.774 72.2867 159.508 72.22 159.214 72.16C158.928 72.0933 158.638 72.0133 158.344 71.92C158.058 71.8267 157.794 71.7067 157.554 71.56C157.314 71.4133 157.118 71.22 156.964 70.98C156.818 70.74 156.744 70.4333 156.744 70.06C156.744 69.66 156.851 69.2967 157.064 68.97C157.284 68.6367 157.611 68.3733 158.044 68.18C158.484 67.98 159.034 67.88 159.694 67.88C160.134 67.88 160.568 67.9333 160.994 68.04C161.421 68.14 161.798 68.2933 162.124 68.5L161.624 69.73C161.298 69.5433 160.971 69.4067 160.644 69.32C160.318 69.2267 159.998 69.18 159.684 69.18C159.371 69.18 159.114 69.2167 158.914 69.29C158.714 69.3633 158.571 69.46 158.484 69.58C158.398 69.6933 158.354 69.8267 158.354 69.98C158.354 70.16 158.428 70.3067 158.574 70.42C158.721 70.5267 158.914 70.6133 159.154 70.68C159.394 70.7467 159.658 70.8133 159.944 70.88C160.238 70.9467 160.528 71.0233 160.814 71.11C161.108 71.1967 161.374 71.3133 161.614 71.46C161.854 71.6067 162.048 71.8 162.194 72.04C162.348 72.28 162.424 72.5833 162.424 72.95C162.424 73.3433 162.314 73.7033 162.094 74.03C161.874 74.3567 161.544 74.62 161.104 74.82C160.671 75.02 160.121 75.12 159.454 75.12ZM168.831 75.12C168.271 75.12 167.735 75.0467 167.221 74.9C166.708 74.7467 166.295 74.55 165.981 74.31L166.531 73.09C166.831 73.3033 167.185 73.48 167.591 73.62C168.005 73.7533 168.421 73.82 168.841 73.82C169.161 73.82 169.418 73.79 169.611 73.73C169.811 73.6633 169.958 73.5733 170.051 73.46C170.145 73.3467 170.191 73.2167 170.191 73.07C170.191 72.8833 170.118 72.7367 169.971 72.63C169.825 72.5167 169.631 72.4267 169.391 72.36C169.151 72.2867 168.885 72.22 168.591 72.16C168.305 72.0933 168.015 72.0133 167.721 71.92C167.435 71.8267 167.171 71.7067 166.931 71.56C166.691 71.4133 166.495 71.22 166.341 70.98C166.195 70.74 166.121 70.4333 166.121 70.06C166.121 69.66 166.228 69.2967 166.441 68.97C166.661 68.6367 166.988 68.3733 167.421 68.18C167.861 67.98 168.411 67.88 169.071 67.88C169.511 67.88 169.945 67.9333 170.371 68.04C170.798 68.14 171.175 68.2933 171.501 68.5L171.001 69.73C170.675 69.5433 170.348 69.4067 170.021 69.32C169.695 69.2267 169.375 69.18 169.061 69.18C168.748 69.18 168.491 69.2167 168.291 69.29C168.091 69.3633 167.948 69.46 167.861 69.58C167.775 69.6933 167.731 69.8267 167.731 69.98C167.731 70.16 167.805 70.3067 167.951 70.42C168.098 70.5267 168.291 70.6133 168.531 70.68C168.771 70.7467 169.035 70.8133 169.321 70.88C169.615 70.9467 169.905 71.0233 170.191 71.11C170.485 71.1967 170.751 71.3133 170.991 71.46C171.231 71.6067 171.425 71.8 171.571 72.04C171.725 72.28 171.801 72.5833 171.801 72.95C171.801 73.3433 171.691 73.7033 171.471 74.03C171.251 74.3567 170.921 74.62 170.481 74.82C170.048 75.02 169.498 75.12 168.831 75.12ZM175.908 75V68H177.528V75H175.908ZM182.189 75V68H183.529L187.659 73.04H187.009V68H188.609V75H187.279L183.139 69.96H183.789V75H182.189ZM196.646 75.12C196.092 75.12 195.582 75.0333 195.116 74.86C194.656 74.68 194.252 74.4267 193.906 74.1C193.566 73.7733 193.299 73.39 193.106 72.95C192.919 72.51 192.826 72.0267 192.826 71.5C192.826 70.9733 192.919 70.49 193.106 70.05C193.299 69.61 193.569 69.2267 193.916 68.9C194.262 68.5733 194.669 68.3233 195.136 68.15C195.602 67.97 196.116 67.88 196.676 67.88C197.296 67.88 197.852 67.9833 198.346 68.19C198.846 68.3967 199.266 68.6967 199.606 69.09L198.566 70.05C198.312 69.7833 198.036 69.5867 197.736 69.46C197.436 69.3267 197.109 69.26 196.756 69.26C196.416 69.26 196.106 69.3133 195.826 69.42C195.546 69.5267 195.302 69.68 195.096 69.88C194.896 70.08 194.739 70.3167 194.626 70.59C194.519 70.8633 194.466 71.1667 194.466 71.5C194.466 71.8267 194.519 72.1267 194.626 72.4C194.739 72.6733 194.896 72.9133 195.096 73.12C195.302 73.32 195.542 73.4733 195.816 73.58C196.096 73.6867 196.402 73.74 196.736 73.74C197.056 73.74 197.366 73.69 197.666 73.59C197.972 73.4833 198.269 73.3067 198.556 73.06L199.476 74.23C199.096 74.5167 198.652 74.7367 198.146 74.89C197.646 75.0433 197.146 75.12 196.646 75.12ZM197.996 74.02V71.39H199.476V74.23L197.996 74.02Z" fill="black"/>
<g clip-path="url(#clip0_30_12)">
<path d="M47.5 28.9583C37.249 28.9583 30.4483 20.4352 30.4483 14.7965C30.4483 13.4125 30.8708 12.2344 31.6698 11.3894C32.2683 10.7556 33.3896 10 35.3125 10C39.3154 10 41.3304 14.1627 43.4619 18.5692C44.8838 21.505 46.3544 24.5438 48.456 26.6454C48.6471 26.8341 48.7776 27.0755 48.8309 27.3387C48.8842 27.6019 48.8578 27.875 48.7553 28.1231C48.6527 28.3713 48.4785 28.5833 48.2549 28.7321C48.0314 28.8808 47.7685 28.9596 47.5 28.9583ZM35.3125 12.7083C34.5406 12.7083 33.9773 12.8898 33.636 13.2527C33.2406 13.6725 33.1567 14.3252 33.1567 14.7965C33.1567 18.2415 37.444 24.4408 44.399 25.9223C43.0637 23.9642 42.0021 21.765 41.0244 19.75C39.1963 15.9719 37.6173 12.7083 35.3125 12.7083Z" fill="black"/>
<path d="M47.5001 28.9583C47.2319 28.9588 46.9696 28.8797 46.7465 28.7309C46.5233 28.5821 46.3494 28.3705 46.2467 28.1227C46.144 27.875 46.1172 27.6023 46.1696 27.3393C46.2221 27.0763 46.3514 26.8348 46.5413 26.6454C48.643 24.5437 50.1136 21.505 51.5355 18.5692C53.6696 14.1627 55.6846 10 59.6876 10C61.6105 10 62.7317 10.7556 63.3303 11.3921C64.1292 12.2371 64.5517 13.4152 64.5517 14.7992C64.5517 20.4352 57.7511 28.9583 47.5001 28.9583ZM59.6876 12.7083C57.3828 12.7083 55.8038 15.9719 53.9757 19.75C52.998 21.7677 51.9363 23.9642 50.6011 25.925C57.5534 24.4435 61.8434 18.2442 61.8434 14.7992C61.8434 14.3252 61.7594 13.6725 61.3613 13.2527C61.0228 12.8898 60.4594 12.7083 59.6876 12.7083ZM27.1876 58.75H16.3542C16.1679 58.7494 15.9836 58.7104 15.8129 58.6356C15.6422 58.5608 15.4888 58.4516 15.362 58.315C15.2353 58.1783 15.138 58.0171 15.0762 57.8413C15.0144 57.6655 14.9894 57.4788 15.0028 57.2929L16.6521 35.851C16.9911 31.5979 18.705 27.5707 21.535 24.3777C24.365 21.1847 28.1572 18.9994 32.3388 18.1521C32.5157 18.1103 32.6992 18.1046 32.8783 18.1353C33.0575 18.1659 33.2286 18.2323 33.3816 18.3305C33.5345 18.4287 33.6661 18.5567 33.7686 18.7069C33.871 18.857 33.9421 19.0262 33.9778 19.2045C34.0134 19.3827 34.0128 19.5663 33.976 19.7442C33.9392 19.9222 33.867 20.091 33.7636 20.2405C33.6602 20.3899 33.5277 20.5171 33.3741 20.6143C33.2206 20.7115 33.049 20.7768 32.8696 20.8062C29.2661 21.5377 25.9983 23.4217 23.5598 26.1739C21.1214 28.926 19.6445 32.3969 19.3524 36.0623L17.8167 56.0417H27.1876C27.5467 56.0417 27.8911 56.1843 28.1451 56.4383C28.3991 56.6922 28.5417 57.0367 28.5417 57.3958C28.5417 57.755 28.3991 58.0994 28.1451 58.3534C27.8911 58.6073 27.5467 58.75 27.1876 58.75Z" fill="black"/>
<path d="M67.8125 66.875H27.1875C26.8283 66.875 26.4839 66.7323 26.23 66.4784C25.976 66.2244 25.8333 65.88 25.8333 65.5208V38.4375C25.8333 38.0784 25.976 37.7339 26.23 37.48C26.4839 37.226 26.8283 37.0833 27.1875 37.0833C27.5466 37.0833 27.8911 37.226 28.145 37.48C28.399 37.7339 28.5417 38.0784 28.5417 38.4375V64.1667H66.4583V38.4375C66.4583 38.0784 66.601 37.7339 66.855 37.48C67.1089 37.226 67.4534 37.0833 67.8125 37.0833C68.1716 37.0833 68.5161 37.226 68.77 37.48C69.024 37.7339 69.1667 38.0784 69.1667 38.4375V65.5208C69.1667 65.88 69.024 66.2244 68.77 66.4784C68.5161 66.7323 68.1716 66.875 67.8125 66.875Z" fill="black"/>
<path d="M62.3958 75H32.6042C30.8091 74.9978 29.0881 74.2838 27.8188 73.0145C26.5495 71.7452 25.8355 70.0242 25.8333 68.2292V65.5208C25.8333 65.1617 25.976 64.8172 26.23 64.5633C26.4839 64.3093 26.8283 64.1667 27.1875 64.1667H67.8125C68.1716 64.1667 68.5161 64.3093 68.77 64.5633C69.024 64.8172 69.1667 65.1617 69.1667 65.5208V68.2292C69.1667 71.9612 66.1279 75 62.3958 75ZM28.5417 66.875V68.2292C28.5417 70.4689 30.3644 72.2917 32.6042 72.2917H62.3958C64.6356 72.2917 66.4583 70.4689 66.4583 68.2292V66.875H28.5417ZM27.1875 64.1667H21.7708C19.531 64.1667 17.7083 62.3439 17.7083 60.1042V57.3958C17.7083 57.0367 17.851 56.6922 18.105 56.4383C18.3589 56.1843 18.7033 56.0417 19.0625 56.0417H27.1875C27.5466 56.0417 27.8911 56.1843 28.145 56.4383C28.399 56.6922 28.5417 57.0367 28.5417 57.3958V62.8125C28.5417 63.1716 28.399 63.5161 28.145 63.77C27.8911 64.024 27.5466 64.1667 27.1875 64.1667ZM20.4167 58.75V60.1042C20.4167 60.4633 20.5593 60.8077 20.8133 61.0617C21.0672 61.3157 21.4117 61.4583 21.7708 61.4583H25.8333V58.75H20.4167ZM78.6458 58.75H67.8125C67.4534 58.75 67.1089 58.6073 66.855 58.3534C66.601 58.0994 66.4583 57.755 66.4583 57.3958C66.4583 57.0367 66.601 56.6922 66.855 56.4383C67.1089 56.1843 67.4534 56.0417 67.8125 56.0417H77.1833L75.6477 36.0623C75.3558 32.3971 73.8791 28.9264 71.4405 26.1746C69.0019 23.4228 65.734 21.5394 62.1304 20.8089C61.3965 20.6627 60.9225 19.9504 61.0687 19.2164C61.215 18.4825 61.9165 17.9977 62.6612 18.1548C66.8431 19.0027 70.6354 21.1885 73.4653 24.3819C76.2953 27.5753 78.0091 31.603 78.3479 35.8564L79.9973 57.2956C80.0123 57.4817 79.9885 57.6689 79.9272 57.8453C79.866 58.0217 79.7688 58.1835 79.6417 58.3203C79.5146 58.457 79.3604 58.5659 79.1889 58.6399C79.0175 58.7138 78.8325 58.7513 78.6458 58.75Z" fill="black"/>
<path d="M73.2292 64.1667H67.8125C67.4534 64.1667 67.1089 64.024 66.855 63.77C66.601 63.5161 66.4583 63.1717 66.4583 62.8125V57.3958C66.4583 57.0367 66.601 56.6923 66.855 56.4383C67.1089 56.1843 67.4534 56.0417 67.8125 56.0417H75.9375C76.2967 56.0417 76.6411 56.1843 76.8951 56.4383C77.149 56.6923 77.2917 57.0367 77.2917 57.3958V60.1042C77.2917 62.344 75.469 64.1667 73.2292 64.1667ZM69.1667 61.4583H73.2292C73.5883 61.4583 73.9328 61.3157 74.1867 61.0617C74.4407 60.8078 74.5833 60.4633 74.5833 60.1042V58.75H69.1667V61.4583ZM43.4375 37.0833C43.0784 37.0833 42.7339 36.9407 42.48 36.6867C42.226 36.4328 42.0833 36.0883 42.0833 35.7292V27.6042C42.0833 27.245 42.226 26.9006 42.48 26.6466C42.7339 26.3927 43.0784 26.25 43.4375 26.25C43.7967 26.25 44.1411 26.3927 44.3951 26.6466C44.649 26.9006 44.7917 27.245 44.7917 27.6042V35.7292C44.7917 36.0883 44.649 36.4328 44.3951 36.6867C44.1411 36.9407 43.7967 37.0833 43.4375 37.0833ZM51.5625 47.9167C51.2034 47.9167 50.8589 47.774 50.605 47.52C50.351 47.2661 50.2083 46.9216 50.2083 46.5625V27.6042C50.2083 27.245 50.351 26.9006 50.605 26.6466C50.8589 26.3927 51.2034 26.25 51.5625 26.25C51.9217 26.25 52.2661 26.3927 52.5201 26.6466C52.774 26.9006 52.9167 27.245 52.9167 27.6042V46.5625C52.9167 46.9216 52.774 47.2661 52.5201 47.52C52.2661 47.774 51.9217 47.9167 51.5625 47.9167ZM59.6875 12.7083H35.3125C34.9534 12.7083 34.6089 12.5657 34.355 12.3117C34.101 12.0578 33.9583 11.7133 33.9583 11.3542C33.9583 10.995 34.101 10.6506 34.355 10.3966C34.6089 10.1427 34.9534 10 35.3125 10H59.6875C60.0467 10 60.3911 10.1427 60.6451 10.3966C60.899 10.6506 61.0417 10.995 61.0417 11.3542C61.0417 11.7133 60.899 12.0578 60.6451 12.3117C60.3911 12.5657 60.0467 12.7083 59.6875 12.7083Z" fill="black"/>
</g>
<defs>
<clipPath id="clip0_30_12">
<rect width="65" height="65" fill="white" transform="translate(15 10)"/>
</clipPath>
</defs>
</svg>
